<?xml version="1.0" encoding="UTF-8"?>
<svg version="1.1" xmlns="http://www.w3.org/2000/svg" width="500" height="500">
<path d="M0 0 C1.30670393 3.92011179 0.23201947 6.60479477 -0.87890625 10.4296875 C-1.08619354 11.16812393 -1.29348083 11.90656036 -1.50704956 12.66737366 C-2.18423158 15.07224931 -2.87331819 17.47353862 -3.5625 19.875 C-4.02884857 21.52395167 -4.49442316 23.17312243 -4.95922852 24.82250977 C-7.65494323 34.36874867 -10.40290389 43.90018301 -13.15795898 53.42944336 C-14.72656641 58.90224139 -16.06753305 64.39938578 -17.2890625 69.9609375 C-18.35982895 74.53816991 -19.69911774 79.03139965 -21.015625 83.54296875 C-22.47366811 88.6634773 -23.74904013 93.82557508 -25 99 C-27.30859375 99.27734375 -27.30859375 99.27734375 -30 99 C-31.66015625 97.12890625 -31.66015625 97.12890625 -33.0625 94.5625 C-33.56136719 93.65628906 -34.06023437 92.75007813 -34.57421875 91.81640625 C-40 81.09863014 -40 81.09863014 -40 78 C-41.29549899 79.09966775 -42.58626071 80.20491801 -43.875 81.3125 C-44.59429687 81.92738281 -45.31359375 82.54226562 -46.0546875 83.17578125 C-48.19179331 85.0412324 -48.19179331 85.0412324 -50 88 C-50.66 88 -51.32 88 -52 88 C-52.3403125 88.8353125 -52.3403125 88.8353125 -52.6875 89.6875 C-54.37550036 92.66159588 -56.46676517 94.72008865 -59 97 C-59.66 97 -60.32 97 -61 97 C-61 97.66 -61 98.32 -61 99 C-65.47058824 103 -65.47058824 103 -68 103 C-68 103.66 -68 104.32 -68 105 C-68.66 105 -69.32 105 -70 105 C-70.33 105.99 -70.66 106.98 -71 108 C-73.15234375 109.796875 -73.15234375 109.796875 -75.9375 111.75 C-76.92234375 112.44609375 -77.9071875 113.1421875 -78.921875 113.859375 C-80.44554687 114.91898438 -80.44554687 114.91898438 -82 116 C-82.97453125 116.68578125 -83.9490625 117.3715625 -84.953125 118.078125 C-87.2973098 119.72575203 -89.64621256 121.36613453 -92 123 C-80.24011 117.55717321 -68.7295479 107.96361913 -59.75390625 98.67578125 C-58 97 -58 97 -56 97 C-56 96.34 -56 95.68 -56 95 C-55.34 95 -54.68 95 -54 95 C-54 94.34 -54 93.68 -54 93 C-53.34 93 -52.68 93 -52 93 C-51.59587891 92.12601563 -51.59587891 92.12601563 -51.18359375 91.234375 C-49.99412977 88.98891824 -48.69416509 87.19305156 -47.0625 85.25 C-46.55847656 84.63640625 -46.05445313 84.0228125 -45.53515625 83.390625 C-44 82 -44 82 -41 82 C-43.14978087 103.11277328 -51.16950801 119.81298512 -67.13671875 133.8828125 C-69.04129964 135.35857294 -70.97287378 136.69824776 -73 138 C-74.16982422 138.76570313 -74.16982422 138.76570313 -75.36328125 139.546875 C-88.98886697 148.1078962 -104.13352129 151.44322954 -120 153 C-119.67 153.99 -119.34 154.98 -119 156 C-118.34 156 -117.68 156 -117 156 C-115.52230782 157.63432755 -114.11730681 159.33476368 -112.75 161.0625 C-110.0405139 164.45920632 -107.32199855 167.81313648 -104.4375 171.0625 C-102 174 -102 174 -102 176 C-101.34 176 -100.68 176 -100 176 C-98.41466298 177.71332754 -96.90458785 179.49689047 -95.4375 181.3125 C-94.63183594 182.29863281 -93.82617188 183.28476562 -92.99609375 184.30078125 C-91 187 -91 187 -90 190 C-89.34 190 -88.68 190 -88 190 C-86.54340023 191.61382948 -85.15951049 193.29363216 -83.8125 195 C-80.40292729 199.27575866 -76.91008824 203.41099219 -73.21484375 207.44140625 C-72 209 -72 209 -72 211 C-71.34 211 -70.68 211 -70 211 C-68.2734375 212.8984375 -68.2734375 212.8984375 -66.375 215.375 C-65.74335938 216.18710937 -65.11171875 216.99921875 -64.4609375 217.8359375 C-63 220 -63 220 -63 222 C-62.34 222 -61.68 222 -61 222 C-57 226.47058824 -57 226.47058824 -57 229 C-56.34 229 -55.68 229 -55 229 C-55 229.66 -55 230.32 -55 231 C-54.34 231 -53.68 231 -53 231 C-50.25624329 233.95481492 -50 234.77471908 -50 239 C-52.63820534 240.31910267 -54.62165646 240.13434336 -57.57617188 240.14526367 C-59.32939758 240.15483345 -59.32939758 240.15483345 -61.11804199 240.16459656 C-62.38877563 240.16570938 -63.65950928 240.1668222 -64.96875 240.16796875 C-66.27396606 240.17129715 -67.57918213 240.17462555 -68.9239502 240.17805481 C-71.69475122 240.18405135 -74.46552106 240.18589448 -77.23632812 240.18530273 C-80.76204457 240.18520179 -84.28755652 240.19878057 -87.81322479 240.21607494 C-91.19840225 240.22998202 -94.58354443 240.22928724 -97.96875 240.23046875 C-99.22328979 240.23765427 -100.47782959 240.24483978 -101.77038574 240.25224304 C-111.46081803 240.22727402 -119.96911005 239.50489462 -128.625 234.875 C-129.64851562 234.33617187 -130.67203125 233.79734375 -131.7265625 233.2421875 C-132.47679687 232.83226562 -133.22703125 232.42234375 -134 232 C-134 231.34 -134 230.68 -134 230 C-134.66 230 -135.32 230 -136 230 C-136 229.34 -136 228.68 -136 228 C-136.66 228 -137.32 228 -138 228 C-138 227.34 -138 226.68 -138 226 C-138.66 226 -139.32 226 -140 226 C-140 225.34 -140 224.68 -140 224 C-140.66 224 -141.32 224 -142 224 C-143.5246582 222.27514648 -143.5246582 222.27514648 -145.30078125 219.87109375 C-145.94853516 219.00033203 -146.59628906 218.12957031 -147.26367188 217.23242188 C-147.93978516 216.31009766 -148.61589844 215.38777344 -149.3125 214.4375 C-149.97701172 213.54224609 -150.64152344 212.64699219 -151.32617188 211.72460938 C-153.22777971 209.15715665 -155.11489927 206.57958441 -157 204 C-157.5264209 203.29246582 -158.0528418 202.58493164 -158.59521484 201.85595703 C-162 197.2270334 -162 197.2270334 -162 195 C-162.66 195 -163.32 195 -164 195 C-165.24926758 193.64233398 -165.24926758 193.64233398 -166.64453125 191.74609375 C-167.15693359 191.05580078 -167.66933594 190.36550781 -168.19726562 189.65429688 C-168.73029297 188.92275391 -169.26332031 188.19121094 -169.8125 187.4375 C-170.59463867 186.38079102 -170.59463867 186.38079102 -171.39257812 185.30273438 C-172.93833343 183.20892101 -174.46921325 181.10476972 -176 179 C-176.4954834 178.33371582 -176.9909668 177.66743164 -177.50146484 176.98095703 C-181 172.22457702 -181 172.22457702 -181 170 C-181.66 170 -182.32 170 -183 170 C-184.75237104 167.95162033 -186.3862676 165.90318009 -188 163.75 C-188.67675781 162.87021484 -188.67675781 162.87021484 -189.3671875 161.97265625 C-191.54964621 159.09930084 -193.55507217 156.31676616 -195 153 C-196.32 153.33 -197.64 153.66 -199 154 C-199 154.66 -199 155.32 -199 156 C-199.66 156 -200.32 156 -201 156 C-201 156.66 -201 157.32 -201 158 C-201.66 158 -202.32 158 -203 158 C-203.36738281 158.82177734 -203.36738281 158.82177734 -203.7421875 159.66015625 C-205.27071777 162.50360231 -207.14108959 164.89021433 -209.125 167.4375 C-223.48197521 186.33848251 -233.35277014 208.07288964 -236.640625 231.6796875 C-237 234 -237 234 -238 237 C-243.35477548 240.74740736 -248.71239205 240.4360743 -254.98828125 240.3984375 C-256.0460527 240.40130768 -257.10382416 240.40417786 -258.19364929 240.40713501 C-260.42687517 240.40917205 -262.66011903 240.40366744 -264.89331055 240.39111328 C-268.29061381 240.37510314 -271.68671872 240.39095014 -275.08398438 240.41015625 C-277.26041927 240.40817282 -279.43685342 240.40432708 -281.61328125 240.3984375 C-282.61982254 240.40451019 -283.62636383 240.41058289 -284.66340637 240.4168396 C-292.22077054 240.34247098 -299.25329078 239.33120445 -305.4375 234.6875 C-309.07041195 230.87737283 -309.97760182 227.69666216 -310.046875 222.44921875 C-309.94890625 221.20785156 -309.8509375 219.96648437 -309.75 218.6875 C-309.6977124 218.02161865 -309.6454248 217.3557373 -309.59155273 216.66967773 C-309.22931358 212.48431257 -308.56005646 208.52711631 -307.53125 204.46484375 C-306.68590513 200.54269217 -306.29105655 196.56842888 -305.82275391 192.58642578 C-304.87977366 184.71974532 -303.6554571 176.89213727 -302.30419922 169.08544922 C-301.92234357 166.72235172 -301.92234357 166.72235172 -301.84765625 163.19140625 C-301 160 -301 160 -297.87890625 157.71875 C-294.33258902 156.02069093 -290.67256409 154.7253838 -286.9375 153.5 C-278.83044173 150.74449822 -270.88061092 147.63140734 -262.9375 144.4375 C-262.30666504 144.18402802 -261.67583008 143.93055603 -261.02587891 143.66940308 C-253.47852725 140.63398775 -245.94197068 137.5719636 -238.40625 134.5078125 C-237.69578018 134.21896683 -236.98531036 133.93012115 -236.25331116 133.63252258 C-232.83375335 132.24187749 -229.41496767 130.84939604 -225.99780273 129.45288086 C-220.12213229 127.05516868 -214.23744392 124.69496459 -208.3046875 122.44140625 C-202.18066112 120.10271616 -196.18061627 117.52868859 -190.1875 114.875 C-184.45351488 112.34093624 -178.74092557 109.86291379 -172.85229492 107.7109375 C-169.67901306 106.49298616 -166.62775749 105.02719558 -163.5625 103.5625 C-162.25805182 102.94740889 -160.95336486 102.33282388 -159.6484375 101.71875 C-158.71402832 101.27789062 -158.71402832 101.27789062 -157.76074219 100.828125 C-155.41047947 99.72273244 -153.05324382 98.63435804 -150.6875 97.5625 C-150.01074219 97.25441406 -149.33398438 96.94632812 -148.63671875 96.62890625 C-147 96 -147 96 -145 96 C-145 96.66 -145 97.32 -145 98 C-146.765625 99.42944336 -146.765625 99.42944336 -149.25 101.08984375 C-150.16144775 101.7044043 -151.07289551 102.31896484 -152.01196289 102.95214844 C-152.99801514 103.60731445 -153.98406738 104.26248047 -155 104.9375 C-157.01976196 106.29522978 -159.0392914 107.65330551 -161.05859375 109.01171875 C-162.06390137 109.68509277 -163.06920898 110.3584668 -164.10498047 111.05224609 C-168.76263505 114.18589159 -173.37515723 117.38420656 -177.98632812 120.58569336 C-187.27314505 127 -187.27314505 127 -190 127 C-190 127.66 -190 128.32 -190 129 C-191.67703883 130.26004539 -193.42099233 131.43129522 -195.1875 132.5625 C-201.0229792 136.34411256 -206.71273291 140.2876953 -212.3828125 144.3125 C-215 146 -215 146 -217 146 C-217 146.66 -217 147.32 -217 148 C-218.57365547 149.27448143 -220.21237132 150.46898948 -221.875 151.625 C-226.75810256 155.07412548 -231.40913935 158.70840394 -236.00390625 162.53125 C-238 164 -238 164 -240 164 C-240 164.66 -240 165.32 -240 166 C-241.6796875 167.5078125 -241.6796875 167.5078125 -243.875 169.125 C-244.59429687 169.66382813 -245.31359375 170.20265625 -246.0546875 170.7578125 C-248 172 -248 172 -250 172 C-250 172.66 -250 173.32 -250 174 C-251.61755209 175.4124696 -253.29462632 176.75741542 -255 178.0625 C-256.68244556 179.35471166 -258.35353419 180.66224653 -260 182 C-260 182.33 -260 182.66 -260 183 C-259.22922119 182.44070801 -259.22922119 182.44070801 -258.44287109 181.87011719 C-256.08776811 180.16223022 -253.73139539 178.45610333 -251.375 176.75 C-250.56675781 176.16347656 -249.75851563 175.57695312 -248.92578125 174.97265625 C-236.52536868 166 -236.52536868 166 -234 166 C-234 165.34 -234 164.68 -234 164 C-232.09625645 162.55036041 -230.12532841 161.18815677 -228.125 159.875 C-226.48917969 158.78832031 -226.48917969 158.78832031 -224.8203125 157.6796875 C-222 156 -222 156 -220 156 C-220 155.34 -220 154.68 -220 154 C-217.6640625 152.2734375 -217.6640625 152.2734375 -214.625 150.375 C-213.62726563 149.74335938 -212.62953125 149.11171875 -211.6015625 148.4609375 C-209 147 -209 147 -207 147 C-207 146.34 -207 145.68 -207 145 C-205.02 144.34 -203.04 143.68 -201 143 C-201 142.34 -201 141.68 -201 141 C-198.59078641 139.37370525 -196.18167693 137.8606789 -193.6875 136.375 C-188.68979605 133.33426153 -183.82054135 130.24969844 -179.125 126.75 C-166.02591463 117 -166.02591463 117 -162 117 C-162 116.34 -162 115.68 -162 115 C-159.57029423 113.35105576 -157.14175335 111.81785041 -154.625 110.3125 C-153.13560034 109.400261 -151.64731438 108.48620116 -150.16015625 107.5703125 C-149.07565186 106.90370605 -149.07565186 106.90370605 -147.96923828 106.22363281 C-134.56099673 97.89210459 -122.0164677 87.72698093 -110.00390625 77.51171875 C-108 76 -108 76 -106 76 C-106 75.34 -106 74.68 -106 74 C-104.45727009 72.70021968 -102.86273509 71.46182919 -101.25 70.25 C-93.40276257 64.00070845 -86.56840565 56.35260848 -81 48 C-84.66980204 45.08828211 -84.66980204 45.08828211 -89 44 C-87.35 45.32 -85.7 46.64 -84 48 C-85.49109259 51.93889778 -87.62784538 53.31152697 -91.1875 55.4375 C-94.57637277 57.50106557 -97.87676771 59.57172413 -101.0625 61.9375 C-104 64 -104 64 -106 64 C-106 64.66 -106 65.32 -106 66 C-107.6796875 67.2890625 -107.6796875 67.2890625 -109.875 68.625 C-110.59429687 69.07101563 -111.31359375 69.51703125 -112.0546875 69.9765625 C-114 71 -114 71 -116 71 C-117.11328125 69.390625 -117.11328125 69.390625 -118.3125 67.25 C-121.78941029 61.53577352 -125.62526527 58.59394575 -132.01991272 56.70419312 C-144.36352126 53.78740467 -157.23107245 53.67955804 -169.84765625 53.5859375 C-171.48246667 53.56715965 -173.11726808 53.54758174 -174.75205994 53.5272522 C-178.99161379 53.47662198 -183.23119884 53.43663359 -187.47088623 53.39910889 C-191.82246164 53.35862769 -196.17391516 53.30774022 -200.52539062 53.2578125 C-209.01684282 53.16187529 -217.508357 53.07721642 -226 53 C-226.13064346 54.05915115 -226.26128693 55.11830231 -226.39588928 56.20954895 C-227.26602808 63.2363201 -228.13968865 70.25825152 -229.18359375 77.26171875 C-229.28363205 77.93764069 -229.38367035 78.61356262 -229.48674011 79.30996704 C-229.80174952 81.43610099 -230.11929375 83.56184232 -230.4375 85.6875 C-230.88242411 88.66392696 -231.32655005 91.64047074 -231.76953125 94.6171875 C-231.93107697 95.7018203 -231.93107697 95.7018203 -232.09588623 96.80836487 C-232.73099034 101.09947905 -233.32765197 105.39347555 -233.88671875 109.6953125 C-234.0144165 110.66122314 -234.14211426 111.62713379 -234.27368164 112.62231445 C-234.49982814 114.35400891 -234.71717282 116.08688738 -234.92358398 117.82104492 C-235.50012157 122.1829397 -236.09363796 125.61861965 -239 129 C-241.93359375 130.40625 -241.93359375 130.40625 -245.4375 131.5 C-250.09481504 133.02691007 -254.62507435 134.61867478 -259.125 136.5625 C-263.06001366 138.23997594 -266.98904506 139.69460711 -271.0625 141 C-276.04608633 142.60907951 -280.71416504 144.6093056 -285.453125 146.828125 C-294.52 151 -294.52 151 -299 151 C-300.25198974 146.99363282 -299.59919849 144.30835378 -298.54785156 140.328125 C-297.3508832 135.24154285 -296.87421427 130.01584771 -296.23242188 124.8359375 C-295.51670565 119.28419397 -294.60992228 113.79604249 -293.546875 108.30078125 C-292.10844753 100.83954127 -291.00025737 93.35980218 -289.97994995 85.83145142 C-288.26127573 73.23184584 -286.39814209 60.65313843 -284.3163147 48.10830688 C-284.06643301 46.59389865 -283.8210318 45.07874339 -283.58041382 43.56283569 C-282.34383545 35.80436814 -281.10894267 28.81289205 -277 22 C-276.34 22 -275.68 22 -275 22 C-274.34 20.68 -273.68 19.36 -273 18 C-272.34 18 -271.68 18 -271 18 C-271 17.34 -271 16.68 -271 16 C-269.3962669 15.35309078 -267.79199694 14.70751236 -266.1875 14.0625 C-265.29417969 13.70285156 -264.40085937 13.34320313 -263.48046875 12.97265625 C-259.69213793 11.4871533 -256.82821896 10.87235312 -252.77604675 10.85955811 C-251.15154854 10.85099289 -251.15154854 10.85099289 -249.49423218 10.84225464 C-247.71080917 10.84057785 -247.71080917 10.84057785 -245.89135742 10.83886719 C-244.01250099 10.83141983 -244.01250099 10.83141983 -242.09568787 10.82382202 C-238.6523338 10.81170142 -235.20904063 10.80424914 -231.76567245 10.79981136 C-229.60510929 10.79687451 -227.44455137 10.79276801 -225.28399086 10.78830719 C-218.4986976 10.77461552 -211.71341642 10.76496355 -204.9281103 10.7611053 C-197.14654345 10.75665487 -189.36515491 10.73925626 -181.58364218 10.7101047 C-175.54251998 10.68827705 -169.50144706 10.67838954 -163.46028596 10.67706418 C-159.86686327 10.67602875 -156.27360772 10.6704002 -152.68022728 10.65224457 C-105.42445148 10.42734276 -105.42445148 10.42734276 -85 21 C-85 21.99 -85 22.98 -85 24 C-85.78238037 24.29769287 -86.56476074 24.59538574 -87.37084961 24.90209961 C-90.26587822 26.00510099 -93.15997929 27.11049214 -96.0534668 28.2175293 C-97.92490826 28.93268815 -99.79741217 29.6450647 -101.66992188 30.35742188 C-102.83974609 30.80537109 -104.00957031 31.25332031 -105.21484375 31.71484375 C-106.29886475 32.12855225 -107.38288574 32.54226074 -108.49975586 32.96850586 C-110.89914029 33.77114367 -110.89914029 33.77114367 -112 35 C-108.20546191 35 -106.33343665 34.38301127 -102.96728516 32.85546875 C-99.45962649 31.33017265 -95.81962099 30.19019088 -92.1875 29 C-91.39069824 28.73654785 -90.59389648 28.4730957 -89.77294922 28.20166016 C-84.99090678 26.62845305 -80.19368493 25.12919074 -75.36328125 23.7109375 C-69.43175046 21.92657617 -63.50145036 20.09766743 -57.82592773 17.60717773 C-53.8972487 15.91347641 -49.89215292 14.55189565 -45.828125 13.22265625 C-45.06506042 12.97003525 -44.30199585 12.71741425 -43.51580811 12.45713806 C-41.09481751 11.65602819 -38.67252307 10.85896251 -36.25 10.0625 C-33.06701891 9.01379622 -29.88481207 7.96277906 -26.703125 6.91015625 C-25.94079056 6.65873871 -25.17845612 6.40732117 -24.39302063 6.14828491 C-19.27131802 4.45011238 -14.20441096 2.6398962 -9.17358398 0.6862793 C-5.98459596 -0.32059988 -3.31266394 -0.29445902 0 0 Z M-98 125 C-98 125.66 -98 126.32 -98 127 C-97.01 126.67 -96.02 126.34 -95 126 C-95.99 125.67 -96.98 125.34 -98 125 Z M-101 127 C-101.33 127.66 -101.66 128.32 -102 129 C-100.68 128.34 -99.36 127.68 -98 127 C-98.99 127 -99.98 127 -101 127 Z M-266 186 C-266.33 186.66 -266.66 187.32 -267 188 C-266.34 188 -265.68 188 -265 188 C-265.33 187.34 -265.66 186.68 -266 186 Z " fill="#131313" transform="translate(412,125)"/>
<path d="M0 0 C0 0.66 0 1.32 0 2 C-2.1171875 3.7265625 -2.1171875 3.7265625 -4.875 5.625 C-5.77992188 6.25664062 -6.68484375 6.88828125 -7.6171875 7.5390625 C-10 9 -10 9 -12 9 C-12 8.34 -12 7.68 -12 7 C-13.65 7.33 -15.3 7.66 -17 8 C-15.41460493 4.82920985 -12.19588855 4.17307375 -9.0625 2.875 C-8.41603516 2.59785156 -7.76957031 2.32070312 -7.10351562 2.03515625 C-2.27628541 0 -2.27628541 0 0 0 Z " fill="#636363" transform="translate(267,221)"/>
<path d="M0 0 C1.60080151 4.00200378 0.29279692 7.04556236 -1 11 C-2.65 10.67 -4.3 10.34 -6 10 C-6 9.01 -6 8.02 -6 7 C-5.34 7 -4.68 7 -4 7 C-3.71125 6.401875 -3.4225 5.80375 -3.125 5.1875 C-2 3 -2 3 0 0 Z " fill="#252525" transform="translate(399,172)"/>
<path d="M0 0 C0.99 0 1.98 0 3 0 C2.67 3.3 2.34 6.6 2 10 C1.34 10 0.68 10 0 10 C-0.38922918 8.71254964 -0.76098036 7.41980403 -1.125 6.125 C-1.43824219 5.04605469 -1.43824219 5.04605469 -1.7578125 3.9453125 C-1.83773438 3.30335938 -1.91765625 2.66140625 -2 2 C-1.34 1.34 -0.68 0.68 0 0 Z " fill="#4A4A4A" transform="translate(368,207)"/>
<path d="M0 0 C0.99 0.66 1.98 1.32 3 2 C1.9024777 4.99324263 1.32317108 5.84610901 -1.625 7.25 C-2.40875 7.4975 -3.1925 7.745 -4 8 C-3.40072174 4.64404172 -2.15377564 2.62198774 0 0 Z " fill="#313131" transform="translate(325,171)"/>
<path d="M0 0 C0.99 0 1.98 0 3 0 C2.67 2.31 2.34 4.62 2 7 C0.68 6.34 -0.64 5.68 -2 5 C-1.125 1.125 -1.125 1.125 0 0 Z " fill="#252525" transform="translate(404,146)"/>
<path d="M0 0 C0.66 0.33 1.32 0.66 2 1 C1.34 2.98 0.68 4.96 0 7 C-1.32 6.67 -2.64 6.34 -4 6 C-3.6875 4.125 -3.6875 4.125 -3 2 C-2.01 1.34 -1.02 0.68 0 0 Z M-3 7 C-1 8 -1 8 -1 8 Z " fill="#323232" transform="translate(324,246)"/>
<path d="M0 0 C0.66 0.33 1.32 0.66 2 1 C2 1.66 2 2.32 2 3 C-1.11505367 5.84804907 -4.01328937 7.63312778 -8 9 C-7.04882866 7.8274869 -6.08882991 6.66212985 -5.125 5.5 C-4.32449219 4.52546875 -4.32449219 4.52546875 -3.5078125 3.53125 C-2.76144531 2.77328125 -2.76144531 2.77328125 -2 2 C-1.34 2 -0.68 2 0 2 C0 1.34 0 0.68 0 0 Z " fill="#323232" transform="translate(356,220)"/>
<path d="M0 0 C0.66 0.99 1.32 1.98 2 3 C1.01 3.66 0.02 4.32 -1 5 C-1.66 5.66 -2.32 6.32 -3 7 C-4.32 6.67 -5.64 6.34 -7 6 C-4.69 4.02 -2.38 2.04 0 0 Z " fill="#464646" transform="translate(316,191)"/>
<path d="M0 0 C0.33 1.32 0.66 2.64 1 4 C-4.625 6 -4.625 6 -8 6 C-6.625 4.5 -6.625 4.5 -5 3 C-4.34 3 -3.68 3 -3 3 C-3 2.34 -3 1.68 -3 1 C-2.01 0.67 -1.02 0.34 0 0 Z " fill="#373737" transform="translate(208,269)"/>
<path d="M0 0 C0 0.66 0 1.32 0 2 C-1.65 2.66 -3.3 3.32 -5 4 C-5 3.34 -5 2.68 -5 2 C-6.65 2.33 -8.3 2.66 -10 3 C-8.0130571 -0.97388579 -3.91761109 -0.08705802 0 0 Z " fill="#4C4C4C" transform="translate(260,226)"/>
<path d="M0 0 C0.33 0.66 0.66 1.32 1 2 C0.07456291 3.34173403 -0.86577405 4.67320159 -1.8125 6 C-2.33457031 6.7425 -2.85664063 7.485 -3.39453125 8.25 C-3.92433594 8.8275 -4.45414062 9.405 -5 10 C-5.99 10 -6.98 10 -8 10 C-5.36 6.7 -2.72 3.4 0 0 Z " fill="#666666" transform="translate(331,173)"/>
<path d="M0 0 C1.60080151 4.00200378 0.29279692 7.04556236 -1 11 C-1.33333333 9.66666667 -1.66666667 8.33333333 -2 7 C-2.2475 6.319375 -2.495 5.63875 -2.75 4.9375 C-2.8325 4.298125 -2.915 3.65875 -3 3 C-1.5625 1.25 -1.5625 1.25 0 0 Z " fill="#434343" transform="translate(181,326)"/>
<path d="M0 0 C1.32 0.66 2.64 1.32 4 2 C1.77810176 4.22189824 -0.08482708 4.92598892 -3 6 C-2.01 4.02 -1.02 2.04 0 0 Z " fill="#0E0E0E" transform="translate(124,280)"/>
<path d="M0 0 C2.475 0.495 2.475 0.495 5 1 C4 4 4 4 1.9375 5.1875 C1.298125 5.455625 0.65875 5.72375 0 6 C0 4.02 0 2.04 0 0 Z " fill="#303030" transform="translate(337,229)"/>
<path d="M0 0 C0.99 0.33 1.98 0.66 3 1 C3 1.66 3 2.32 3 3 C3.66 3.33 4.32 3.66 5 4 C2.625 4.625 2.625 4.625 0 5 C-0.66 4.34 -1.32 3.68 -2 3 C-1.34 2.01 -0.68 1.02 0 0 Z " fill="#313131" transform="translate(298,154)"/>
<path d="M0 0 C1.98 0.66 3.96 1.32 6 2 C6 2.99 6 3.98 6 5 C4.02 4.34 2.04 3.68 0 3 C0 2.01 0 1.02 0 0 Z " fill="#474747" transform="translate(321,144)"/>
</svg>
